<svg xmlns="http://www.w3.org/2000/svg" width="256" height="256" viewBox="0 0 100 100"><rect width="100" height="100" rx="20" fill="#ffc7c7"></rect><path fill="#2f2e2e" d="M19.15 78.08Q12.91 78.08 9.71 74.53Q6.51 70.98 6.51 64.35L6.51 64.35L6.51 61.23L14.63 61.23L14.63 64.98Q14.63 70.28 19.07 70.28L19.07 70.28Q21.26 70.28 22.39 68.99Q23.52 67.71 23.52 64.82L23.52 64.82Q23.52 61.39 21.96 58.77Q20.40 56.16 16.19 52.50L16.19 52.50Q10.88 47.82 8.78 44.03Q6.67 40.25 6.67 35.49L6.67 35.49Q6.67 29.02 9.95 25.47Q13.22 21.92 19.46 21.92L19.46 21.92Q25.62 21.92 28.78 25.47Q31.94 29.02 31.94 35.65L31.94 35.65L31.94 37.91L23.83 37.91L23.83 35.10Q23.83 32.29 22.74 31.01Q21.65 29.72 19.54 29.72L19.54 29.72Q15.25 29.72 15.25 34.95L15.25 34.95Q15.25 37.91 16.85 40.48Q18.45 43.06 22.66 46.72L22.66 46.72Q28.04 51.40 30.07 55.23Q32.10 59.05 32.10 64.20L32.10 64.20Q32.10 70.90 28.78 74.49Q25.47 78.08 19.15 78.08L19.15 78.08ZM37.01 77.30L37.01 22.70L45.59 22.70L45.59 45.71L56.51 22.70L65.09 22.70L54.87 42.75L65.25 77.30L56.28 77.30L49.02 52.96L45.59 59.91L45.59 77.30L37.01 77.30ZM80.46 78.08Q74.14 78.08 70.79 74.49Q67.43 70.90 67.43 64.35L67.43 64.35L67.43 35.65Q67.43 29.10 70.79 25.51Q74.14 21.92 80.46 21.92L80.46 21.92Q86.78 21.92 90.13 25.51Q93.48 29.10 93.48 35.65L93.48 35.65L93.48 64.35Q93.48 70.90 90.13 74.49Q86.78 78.08 80.46 78.08L80.46 78.08ZM80.46 70.28Q84.91 70.28 84.91 64.90L84.91 64.90L84.91 35.10Q84.91 29.72 80.46 29.72L80.46 29.72Q76.01 29.72 76.01 35.10L76.01 35.10L76.01 64.90Q76.01 70.28 80.46 70.28L80.46 70.28Z"></path></svg>