<?xml version="1.0" encoding="UTF-8"?><svg id="Lag_1" xmlns="http://www.w3.org/2000/svg" width="87.14mm" height="47.3mm" viewBox="0 0 247.01 134.08"><defs><style>.cls-1{fill:#fff;stroke:#fff;stroke-linecap:round;stroke-miterlimit:10;}</style></defs><path class="cls-1" d="M12.54,13.5c1.37,0,11.62,0,12.99,0,19.35,.06,24.98,.24,42.98,1.24-4,24-.25,31.5,3,38,1,2,3.69,4.67,4,5,12,13,34.82,17.34,46,20,4.24,1.4,23.32,6.59,33.91,15.06,15.15,12.11,11.41,26.55,10.82,29.74-23.81,1.66-58.45-.55-82.26,1.1-2.28-5.22-14.94-5.74-20.57-5.51-5.53,.23-12.17,1.34-14.07,6.61H13.85c-.55-39.47-.76-71.77-1.31-111.24Z"/><path class="cls-1" d="M234.32,123.57c-1.37,0-11.62-.01-12.99-.02-19.35-.08-24.98-.27-42.98-1.3,4.03-23.99,.29-31.5-2.95-38-1-2-3.69-4.67-3.99-5.01-11.98-13.02-34.79-17.39-45.97-20.07-4.24-1.41-23.31-6.62-33.89-15.11-15.14-12.14-11.37-26.56-10.78-29.75,23.82-1.62,58.45,.64,82.26-.98,2.27,5.22,14.93,5.77,20.56,5.54,5.53-.23,12.17-1.32,14.08-6.59,14.78,.02,20.71,.03,35.49,.05,.49,39.47,.66,71.77,1.15,111.24Z"/></svg>