<?xml version="1.0" encoding="UTF-8"?><svg id="Lag_1" xmlns="http://www.w3.org/2000/svg" width="87.14mm" height="57.18mm" viewBox="0 0 247.01 162.08"><defs><style>.cls-1{stroke:#1d1d1b;stroke-linecap:round;stroke-miterlimit:10;}.cls-1,.cls-2{fill:#1d1d1b;}</style></defs><path class="cls-1" d="M12.51,8.5c1.37,0,11.62,0,12.99,0,19.35,.06,24.98,.24,42.98,1.24-4,24-.25,31.5,3,38,1,2,3.69,4.67,4,5,12,13,34.82,17.34,46,20,4.24,1.4,23.32,6.59,33.91,15.06,15.15,12.11,11.41,26.55,10.82,29.74-23.81,1.66-58.45-.55-82.26,1.1-2.28-5.22-14.94-5.74-20.57-5.51-5.53,.23-12.17,1.34-14.07,6.61H13.82c-.55-39.47-.76-71.77-1.31-111.24Z"/><g><path class="cls-2" d="M32.26,133.79h-6.88v-2.27c0-1.06-.09-1.74-.26-2.03-.18-.29-.47-.44-.88-.44-.45,0-.78,.2-1.01,.59s-.34,.99-.34,1.78c0,1.02,.13,1.8,.39,2.31,.25,.52,.94,1.14,2.09,1.88,3.3,2.11,5.38,3.84,6.23,5.19,.86,1.35,1.28,3.53,1.28,6.54,0,2.19-.24,3.8-.71,4.83-.48,1.04-1.39,1.91-2.75,2.61-1.36,.7-2.95,1.05-4.75,1.05-1.98,0-3.68-.4-5.08-1.21-1.4-.81-2.32-1.84-2.75-3.09-.43-1.25-.65-3.03-.65-5.33v-2.01h6.88v3.73c0,1.15,.1,1.89,.29,2.22,.19,.33,.54,.49,1.03,.49s.86-.21,1.1-.63,.36-1.04,.36-1.86c0-1.81-.23-2.99-.69-3.55-.47-.56-1.63-1.48-3.47-2.79-1.84-1.31-3.06-2.27-3.66-2.86-.6-.59-1.09-1.42-1.49-2.46-.39-1.05-.59-2.39-.59-4.02,0-2.35,.28-4.07,.84-5.16,.56-1.09,1.46-1.94,2.7-2.55,1.24-.61,2.75-.92,4.51-.92,1.92,0,3.56,.33,4.92,1s2.25,1.51,2.69,2.53c.44,1.02,.66,2.75,.66,5.19v1.21Z"/><path class="cls-2" d="M75.97,124.5l-4.25,13.86,4.66,16.84h-7.66l-3-13.16v13.16h-7.41v-30.69h7.41v11.92l3.3-11.92h6.95Z"/><path class="cls-2" d="M117.04,142.47c0,3.08-.07,5.27-.2,6.55s-.56,2.46-1.27,3.52c-.71,1.06-1.67,1.88-2.88,2.45-1.21,.57-2.62,.85-4.22,.85s-2.9-.27-4.11-.81c-1.21-.54-2.19-1.34-2.93-2.42s-1.18-2.24-1.32-3.51c-.14-1.26-.21-3.48-.21-6.64v-5.25c0-3.08,.07-5.27,.2-6.55,.13-1.28,.56-2.46,1.27-3.52,.71-1.06,1.67-1.88,2.88-2.45,1.21-.57,2.62-.85,4.22-.85,1.53,0,2.9,.27,4.11,.81,1.21,.54,2.19,1.34,2.93,2.42,.74,1.07,1.18,2.24,1.32,3.51,.14,1.26,.21,3.48,.21,6.64v5.25Zm-7.41-10.09c0-1.43-.07-2.34-.22-2.74-.15-.4-.45-.6-.91-.6-.39,0-.68,.16-.89,.48-.21,.32-.31,1.27-.31,2.85v14.33c0,1.78,.07,2.88,.2,3.3s.45,.63,.94,.63,.83-.24,.97-.72c.14-.48,.21-1.62,.21-3.43v-14.1Z"/><path class="cls-2" d="M157.84,124.5v6.14h-4.4v24.55h-7.41v-24.55h-4.38v-6.14h16.19Z"/><path class="cls-2" d="M199.22,129.8c.23,.96,.35,3.44,.35,7.43v5.25c0,3.08-.07,5.27-.2,6.55-.13,1.28-.56,2.45-1.27,3.52-.71,1.06-1.67,1.88-2.88,2.44-1.21,.57-2.62,.85-4.22,.85-1.71,0-3.18-.3-4.39-.91-1.21-.61-2.18-1.51-2.91-2.71l-1.88,2.65-1.62-1.33,2.59-3.64c-.24-.91-.36-3.39-.36-7.43v-5.25c0-3.08,.07-5.27,.2-6.55s.56-2.45,1.27-3.52,1.67-1.88,2.88-2.45c1.21-.57,2.62-.85,4.22-.85,1.7,0,3.16,.3,4.38,.9,1.22,.6,2.19,1.51,2.92,2.72l1.88-2.65,1.63,1.32-2.59,3.66Zm-7.06,6.55v-4.02c0-1.4-.07-2.3-.22-2.69-.15-.39-.45-.59-.91-.59-.48,0-.8,.21-.96,.63-.16,.42-.24,1.31-.24,2.68v7.33l2.32-3.34Zm-2.32,7v3.36c0,1.79,.07,2.89,.2,3.31s.45,.63,.94,.63,.83-.24,.97-.72c.14-.48,.21-1.63,.21-3.44v-6.47l-2.32,3.34Z"/><path class="cls-2" d="M234.51,124.5v20.51c0,3.07-.03,5.05-.09,5.92-.06,.88-.33,1.67-.8,2.38-.48,.71-1.12,1.2-1.94,1.47-.81,.27-2.04,.41-3.69,.41h-3.71v-5.37c.45,.04,.77,.06,.97,.06,.53,0,.94-.14,1.25-.42,.31-.28,.48-.62,.53-1.02,.05-.4,.07-1.19,.07-2.35v-21.59h7.41Z"/></g><path class="cls-1" d="M234.29,118.57c-1.37,0-11.62-.01-12.99-.02-19.35-.08-24.98-.27-42.98-1.3,4.03-23.99,.29-31.5-2.95-38-1-2-3.69-4.67-3.99-5.01-11.98-13.02-34.79-17.39-45.97-20.07-4.24-1.41-23.31-6.62-33.89-15.11-15.14-12.14-11.37-26.56-10.78-29.75,23.82-1.62,58.45,.64,82.26-.98,2.27,5.22,14.93,5.77,20.56,5.54,5.53-.23,12.17-1.32,14.08-6.59,14.78,.02,20.71,.03,35.49,.05,.49,39.47,.66,71.77,1.15,111.24Z"/></svg>